<?xml version="1.0" standalone="no"?>
<!DOCTYPE svg PUBLIC "-//W3C//DTD SVG 20010904//EN"
 "http://www.w3.org/TR/2001/REC-SVG-20010904/DTD/svg10.dtd">
<svg version="1.0" xmlns="http://www.w3.org/2000/svg"
 width="600.000000pt" height="600.000000pt" viewBox="0 0 600.000000 600.000000"
 preserveAspectRatio="xMidYMid meet">
<metadata>
Created by potrace 1.11, written by Peter Selinger 2001-2013
</metadata>
<g transform="translate(0.000000,600.000000) scale(0.100000,-0.100000)"
fill="#000000" stroke="none">
<path d="M312 5885 c0 -16 2 -22 5 -12 2 9 2 23 0 30 -3 6 -5 -1 -5 -18z"/>
<path d="M2772 5590 c-37 -17 -210 -47 -333 -59 -43 -4 -74 -12 -87 -24 -10
-10 -32 -22 -48 -27 -16 -5 -65 -23 -109 -40 -44 -17 -92 -35 -106 -40 -42
-13 -331 -160 -364 -184 -16 -13 -44 -30 -61 -39 -46 -24 -237 -170 -349 -267
-222 -194 -470 -516 -594 -775 -29 -60 -59 -122 -67 -136 -27 -51 -114 -292
-138 -383 -115 -433 -115 -789 0 -1222 36 -137 151 -431 200 -514 8 -14 26
-47 39 -75 23 -46 68 -121 139 -227 16 -23 63 -86 105 -138 102 -126 97 -115
68 -168 -29 -54 -59 -150 -51 -163 3 -5 1 -9 -4 -9 -12 0 -45 -118 -38 -136 3
-8 10 -14 16 -14 6 0 8 4 5 10 -3 5 -1 10 5 10 7 0 10 -7 6 -15 -3 -8 -8 -44
-12 -80 -4 -36 -10 -65 -13 -65 -3 0 -4 -23 -2 -51 2 -28 -1 -49 -6 -46 -4 3
-7 -27 -6 -66 2 -48 0 -65 -6 -52 -7 17 -10 13 -13 -20 -4 -35 -5 -33 -6 15
-1 30 3 96 8 145 5 50 12 119 14 155 5 62 4 61 -9 -20 -15 -91 -37 -592 -27
-618 3 -9 1 -13 -5 -9 -11 7 -56 -129 -48 -143 3 -5 0 -10 -7 -12 -7 -3 -12
-21 -12 -41 0 -19 -4 -33 -8 -31 -4 3 -8 0 -8 -5 0 -8 695 -11 2324 -11 l2325
0 4 23 4 22 2 -22 c0 -14 7 -23 17 -23 11 0 14 6 9 21 -5 16 -4 19 5 14 10 -6
12 2 7 33 -3 24 -1 45 5 48 6 4 8 25 4 50 -4 30 -2 44 6 44 8 0 9 25 5 83 -3
49 -2 74 3 62 6 -13 9 10 9 68 1 48 -3 87 -8 87 -5 0 -9 30 -9 68 1 37 -1 94
-4 127 -3 33 -6 76 -7 95 -3 32 -4 33 -10 10 -4 -15 -7 6 -8 55 -1 155 -51
255 -195 391 -48 45 -127 107 -176 139 l-90 57 57 80 c127 179 210 333 334
623 14 33 42 119 61 190 20 72 40 144 45 160 9 27 22 115 51 338 18 141 12
256 -29 542 -12 80 -30 157 -71 295 -80 269 -251 615 -395 800 -28 36 -58 76
-67 90 -62 97 -358 393 -458 458 -14 9 -54 39 -90 67 -60 47 -262 175 -276
175 -3 0 -36 17 -72 39 -37 21 -102 53 -145 70 -43 17 -88 38 -100 46 -12 8
-33 15 -47 15 -14 0 -36 6 -50 13 -14 7 -47 21 -75 30 -27 9 -72 23 -100 32
-27 10 -79 25 -115 35 -36 10 -85 26 -110 35 -31 11 -74 16 -135 15 -49 -1
-175 0 -278 2 -159 3 -194 1 -225 -12z m-1077 -1770 c-3 -5 -12 -10 -18 -10
-7 0 -6 4 3 10 19 12 23 12 15 0z m-85 -22 c0 -4 -4 -8 -9 -8 -6 0 -12 4 -15
8 -3 5 1 9 9 9 8 0 15 -4 15 -9z m3897 -3005 c-3 -10 -5 -2 -5 17 0 19 2 27 5
18 2 -10 2 -26 0 -35z m22 -307 c0 -88 -1 -157 -3 -155 -2 2 -5 103 -8 224 -2
121 -1 191 3 155 4 -36 7 -137 8 -224z m-12 -308 c-2 -18 -4 -6 -4 27 0 33 2
48 4 33 2 -15 2 -42 0 -60z m-10 -100 c-2 -13 -4 -5 -4 17 -1 22 1 32 4 23 2
-10 2 -28 0 -40z"/>
</g>
</svg>
